<?xml version="1.0" standalone="no"?>
<!DOCTYPE svg PUBLIC "-//W3C//DTD SVG 20010904//EN"
 "http://www.w3.org/TR/2001/REC-SVG-20010904/DTD/svg10.dtd">
<svg version="1.0" xmlns="http://www.w3.org/2000/svg"
 width="512.000000pt" height="512.000000pt" viewBox="0 0 512.000000 512.000000"
 preserveAspectRatio="xMidYMid meet">
<metadata>
Created by potrace 1.14, written by Peter Selinger 2001-2017
</metadata>
<g transform="translate(0.000000,512.000000) scale(0.100000,-0.100000)"
fill="#000000" stroke="none">
<path d="M2589 4986 c-2 -2 -58 -6 -124 -9 -102 -5 -171 -15 -292 -41 -13 -3
-71 -21 -130 -41 -472 -161 -844 -550 -991 -1036 -11 -36 -23 -81 -26 -100 -3
-19 -12 -68 -20 -109 -15 -86 -20 -340 -8 -415 9 -55 6 -75 -11 -75 -6 0 -60
-25 -121 -55 -422 -210 -741 -622 -830 -1070 -8 -44 -18 -93 -22 -110 -3 -16
-7 -105 -9 -196 -4 -273 42 -483 160 -719 201 -405 573 -709 1001 -820 110
-28 104 -27 249 -45 50 -6 255 -6 315 0 264 29 533 131 748 285 l82 59 82 -59
c221 -158 492 -259 763 -285 76 -8 239 -8 295 0 19 2 58 7 85 11 230 30 468
127 678 276 351 249 583 634 644 1071 12 84 8 376 -6 452 -30 161 -89 340
-152 460 -33 65 -99 177 -108 185 -4 3 -26 32 -51 65 -51 70 -197 218 -255
261 -22 16 -42 31 -45 35 -11 13 -130 89 -139 89 -5 0 -11 4 -13 8 -1 5 -48
30 -103 56 -124 59 -130 62 -128 73 15 81 19 280 8 383 -16 155 -66 349 -121
466 -13 28 -24 54 -24 57 0 15 -108 190 -158 257 -71 95 -197 226 -270 282
-31 24 -59 46 -62 49 -11 13 -148 98 -208 128 -134 67 -312 129 -426 147 -21
3 -48 7 -59 10 -11 2 -56 6 -101 10 -45 3 -84 8 -87 10 -3 2 -8 2 -10 0z"/>
</g>
</svg>
